# xmcd
# 
# Track frame offsets:
#     150
#     23430
#     43885
#     69657
#     91576
#     118410
#     138866
#     160210
#     183033
#     206051
#     238983
# 
# Disc length: 3549
# 
# Revision: 1
# Processed by: cddbd v1.5.2PL0 Copyright (c) Steve Scherf et al.
# Submitted via: fre:ac v1.0.17
# 
DISCID=930ddb0b
DTITLE=Josh Smith - Don't Give Up On Me
DYEAR=2012
DGENRE=Blues
TTITLE0=Bad Side
TTITLE1=Made For Me
TTITLE2=Don't Give Up On Me
TTITLE3=I've Always Been
TTITLE4=That Ain't Me
TTITLE5=Letting You Go
TTITLE6=No One But Me
TTITLE7=Carry Me Through
TTITLE8=Sneaky Jo Turner
TTITLE9=The Middle
TTITLE10=That Ain't Love
EXTD=
EXTT0=
EXTT1=
EXTT2=
EXTT3=
EXTT4=
EXTT5=
EXTT6=
EXTT7=
EXTT8=
EXTT9=
EXTT10=
PLAYORDER=
